{
  "accessors": [
    {
      "bufferView": 2,
      "componentType": 5126,
      "count": 65532,
      "max": [
        0.2525049149990082,
        0.5627664923667908,
        2.2504048347473145
      ],
      "min": [
        -0.5743070244789124,
        -0.5646397471427917,
        0.0
      ],
      "type": "VEC3"
    },
    {
      "bufferView": 2,
      "byteOffset": 786384,
      "componentType": 5126,
      "count": 65532,
      "max": [
        0.9999932050704956,
        0.9999983906745911,
        0.9999967217445374
      ],
      "min": [
        -0.9999997615814209,
        -0.9999860525131226,
        -1.0
      ],
      "type": "VEC3"
    },
    {
      "bufferView": 1,
      "componentType": 5126,
      "count": 65532,
      "max": [
        0.9997336864471436,
        0.9274901151657104
      ],
      "min": [
        0.000244140625,
        0.0003543092170730233
      ],
      "type": "VEC2"
    },
    {
      "bufferView": 1,
      "byteOffset": 524256,
      "componentType": 5126,
      "count": 65532,
      "max": [
        0.9997336864471436,
        0.9274901151657104
      ],
      "min": [
        0.000244140625,
        0.0003543092170730233
      ],
      "type": "VEC2"
    },
    {
      "bufferView": 0,
      "componentType": 5125,
      "count": 296943,
      "type": "SCALAR"
    },
    {
      "bufferView": 2,
      "byteOffset": 1572768,
      "componentType": 5126,
      "count": 65532,
      "max": [
        0.5761373043060303,
        0.5638555288314819,
        2.3953943252563477
      ],
      "min": [
        -0.3305242359638214,
        -0.5635309219360352,
        0.0
      ],
      "type": "VEC3"
    },
    {
      "bufferView": 2,
      "byteOffset": 2359152,
      "componentType": 5126,
      "count": 65532,
      "max": [
        0.9999997019767761,
        0.9999958872795105,
        0.9999977946281433
      ],
      "min": [
        -0.9999759793281555,
        -0.9999960660934448,
        -0.9999014735221863
      ],
      "type": "VEC3"
    },
    {
      "bufferView": 1,
      "byteOffset": 1048512,
      "componentType": 5126,
      "count": 65532,
      "max": [
        0.9997484683990479,
        0.9100491404533386
      ],
      "min": [
        0.000244140625,
        0.00025113357696682215
      ],
      "type": "VEC2"
    },
    {
      "bufferView": 1,
      "byteOffset": 1572768,
      "componentType": 5126,
      "count": 65532,
      "max": [
        0.9997484683990479,
        0.9100491404533386
      ],
      "min": [
        0.000244140625,
        0.00025113357696682215
      ],
      "type": "VEC2"
    },
    {
      "bufferView": 0,
      "byteOffset": 1187772,
      "componentType": 5125,
      "count": 279687,
      "type": "SCALAR"
    },
    {
      "bufferView": 2,
      "byteOffset": 3145536,
      "componentType": 5126,
      "count": 65532,
      "max": [
        0.5727062225341797,
        0.5627663731575012,
        2.0379152297973633
      ],
      "min": [
        -0.11067622900009155,
        -0.5642678737640381,
        0.0
      ],
      "type": "VEC3"
    },
    {
      "bufferView": 2,
      "byteOffset": 3931920,
      "componentType": 5126,
      "count": 65532,
      "max": [
        0.9999998211860657,
        0.9999998211860657,
        0.9999898076057434
      ],
      "min": [
        -0.9999808073043823,
        -0.9999693632125854,
        -1.0
      ],
      "type": "VEC3"
    },
    {
      "bufferView": 1,
      "byteOffset": 2097024,
      "componentType": 5126,
      "count": 65532,
      "max": [
        0.9996446967124939,
        0.9743651151657104
      ],
      "min": [
        0.000244140625,
        0.00029237999115139246
      ],
      "type": "VEC2"
    },
    {
      "bufferView": 1,
      "byteOffset": 2621280,
      "componentType": 5126,
      "count": 65532,
      "max": [
        0.9996446967124939,
        0.9743651151657104
      ],
      "min": [
        0.000244140625,
        0.00029237999115139246
      ],
      "type": "VEC2"
    },
    {
      "bufferView": 0,
      "byteOffset": 2306520,
      "componentType": 5125,
      "count": 259506,
      "type": "SCALAR"
    },
    {
      "bufferView": 2,
      "byteOffset": 4718304,
      "componentType": 5126,
      "count": 65532,
      "max": [
        0.4797521233558655,
        0.5120925903320313,
        1.219892144203186
      ],
      "min": [
        -0.4961210787296295,
        -0.5587789416313171,
        0.08155930042266846
      ],
      "type": "VEC3"
    },
    {
      "bufferView": 2,
      "byteOffset": 5504688,
      "componentType": 5126,
      "count": 65532,
      "max": [
        0.9999986886978149,
        0.9999998211860657,
        0.9999995231628418
      ],
      "min": [
        -0.9999977350234985,
        -0.9999997615814209,
        -0.9865713715553284
      ],
      "type": "VEC3"
    },
    {
      "bufferView": 1,
      "byteOffset": 3145536,
      "componentType": 5126,
      "count": 65532,
      "max": [
        0.9997317790985107,
        0.9743651151657104
      ],
      "min": [
        0.000244140625,
        0.00024988187942653894
      ],
      "type": "VEC2"
    },
    {
      "bufferView": 1,
      "byteOffset": 3669792,
      "componentType": 5126,
      "count": 65532,
      "max": [
        0.9997317790985107,
        0.9743651151657104
      ],
      "min": [
        0.000244140625,
        0.00024988187942653894
      ],
      "type": "VEC2"
    },
    {
      "bufferView": 0,
      "byteOffset": 3344544,
      "componentType": 5125,
      "count": 235251,
      "type": "SCALAR"
    },
    {
      "bufferView": 2,
      "byteOffset": 6291072,
      "componentType": 5126,
      "count": 65532,
      "max": [
        0.3829025328159332,
        0.5262406468391418,
        1.116518259048462
      ],
      "min": [
        -0.49474623799324036,
        -0.5628090500831604,
        0.0
      ],
      "type": "VEC3"
    },
    {
      "bufferView": 2,
      "byteOffset": 7077456,
      "componentType": 5126,
      "count": 65532,
      "max": [
        0.9979285001754761,
        0.9999997615814209,
        0.9999971389770508
      ],
      "min": [
        -0.9999995231628418,
        -0.9999997615814209,
        -1.0
      ],
      "type": "VEC3"
    },
    {
      "bufferView": 1,
      "byteOffset": 4194048,
      "componentType": 5126,
      "count": 65532,
      "max": [
        0.9996491074562073,
        0.9929198026657104
      ],
      "min": [
        0.000244140625,
        0.00025059713516384363
      ],
      "type": "VEC2"
    },
    {
      "bufferView": 1,
      "byteOffset": 4718304,
      "componentType": 5126,
      "count": 65532,
      "max": [
        0.9996491074562073,
        0.9929198026657104
      ],
      "min": [
        0.000244140625,
        0.00025059713516384363
      ],
      "type": "VEC2"
    },
    {
      "bufferView": 0,
      "byteOffset": 4285548,
      "componentType": 5125,
      "count": 304401,
      "type": "SCALAR"
    },
    {
      "bufferView": 2,
      "byteOffset": 7863840,
      "componentType": 5126,
      "count": 65532,
      "max": [
        0.5721207857131958,
        0.40453124046325684,
        0.7885681390762329
      ],
      "min": [
        -0.496635764837265,
        -0.563066303730011,
        0.0
      ],
      "type": "VEC3"
    },
    {
      "bufferView": 2,
      "byteOffset": 8650224,
      "componentType": 5126,
      "count": 65532,
      "max": [
        0.9999263882637024,
        0.999996542930603,
        0.9999977946281433
      ],
      "min": [
        -0.9999995231628418,
        -0.999998927116394,
        -1.0
      ],
      "type": "VEC3"
    },
    {
      "bufferView": 1,
      "byteOffset": 5242560,
      "componentType": 5126,
      "count": 65532,
      "max": [
        0.9997484087944031,
        0.9913461804389954
      ],
      "min": [
        0.000244140625,
        0.00024529232177883387
      ],
      "type": "VEC2"
    },
    {
      "bufferView": 1,
      "byteOffset": 5766816,
      "componentType": 5126,
      "count": 65532,
      "max": [
        0.9997484087944031,
        0.9913461804389954
      ],
      "min": [
        0.000244140625,
        0.00024529232177883387
      ],
      "type": "VEC2"
    },
    {
      "bufferView": 0,
      "byteOffset": 5503152,
      "componentType": 5125,
      "count": 262803,
      "type": "SCALAR"
    },
    {
      "bufferView": 2,
      "byteOffset": 9436608,
      "componentType": 5126,
      "count": 65532,
      "max": [
        0.47801607847213745,
        0.3079662024974823,
        1.5248644351959229
      ],
      "min": [
        -0.30710166692733765,
        -0.5626779198646545,
        0.0692816972732544
      ],
      "type": "VEC3"
    },
    {
      "bufferView": 2,
      "byteOffset": 10222992,
      "componentType": 5126,
      "count": 65532,
      "max": [
        0.9999997615814209,
        1.0,
        0.9999920725822449
      ],
      "min": [
        -0.9999998211860657,
        -0.9999920725822449,
        -0.9544474482536316
      ],
      "type": "VEC3"
    },
    {
      "bufferView": 1,
      "byteOffset": 6291072,
      "componentType": 5126,
      "count": 65532,
      "max": [
        0.9997277855873108,
        0.9675291776657104
      ],
      "min": [
        0.000244140625,
        0.000530202523805201
      ],
      "type": "VEC2"
    },
    {
      "bufferView": 1,
      "byteOffset": 6815328,
      "componentType": 5126,
      "count": 65532,
      "max": [
        0.9997277855873108,
        0.9675291776657104
      ],
      "min": [
        0.000244140625,
        0.000530202523805201
      ],
      "type": "VEC2"
    },
    {
      "bufferView": 0,
      "byteOffset": 6554364,
      "componentType": 5125,
      "count": 290871,
      "type": "SCALAR"
    },
    {
      "bufferView": 2,
      "byteOffset": 11009376,
      "componentType": 5126,
      "count": 65532,
      "max": [
        0.42614683508872986,
        0.5360141396522522,
        1.5243464708328247
      ],
      "min": [
        -0.34141653776168823,
        -0.3045679032802582,
        0.09270572662353516
      ],
      "type": "VEC3"
    },
    {
      "bufferView": 2,
      "byteOffset": 11795760,
      "componentType": 5126,
      "count": 65532,
      "max": [
        0.9999997019767761,
        0.9999998211860657,
        0.9999939799308777
      ],
      "min": [
        -0.9999995231628418,
        -0.9999997615814209,
        -0.8898307681083679
      ],
      "type": "VEC3"
    },
    {
      "bufferView": 1,
      "byteOffset": 7339584,
      "componentType": 5126,
      "count": 65532,
      "max": [
        0.9994761943817139,
        0.96749347448349
      ],
      "min": [
        0.000244140625,
        0.0002576304832473397
      ],
      "type": "VEC2"
    },
    {
      "bufferView": 1,
      "byteOffset": 7863840,
      "componentType": 5126,
      "count": 65532,
      "max": [
        0.9994761943817139,
        0.96749347448349
      ],
      "min": [
        0.000244140625,
        0.0002576304832473397
      ],
      "type": "VEC2"
    },
    {
      "bufferView": 0,
      "byteOffset": 7717848,
      "componentType": 5125,
      "count": 308844,
      "type": "SCALAR"
    },
    {
      "bufferView": 2,
      "byteOffset": 12582144,
      "componentType": 5126,
      "count": 65532,
      "max": [
        0.5768672823905945,
        0.5651560425758362,
        2.0119223594665527
      ],
      "min": [
        -0.5721204876899719,
        0.30105406045913696,
        0.0
      ],
      "type": "VEC3"
    },
    {
      "bufferView": 2,
      "byteOffset": 13368528,
      "componentType": 5126,
      "count": 65532,
      "max": [
        0.9999493956565857,
        0.9999951720237732,
        0.9999995231628418
      ],
      "min": [
        -0.9999972581863403,
        -0.9994705319404602,
        -1.0
      ],
      "type": "VEC3"
    },
    {
      "bufferView": 1,
      "byteOffset": 8388096,
      "componentType": 5126,
      "count": 65532,
      "max": [
        0.9997515678405762,
        0.9917933940887451
      ],
      "min": [
        0.000244140625,
        0.00024547113571316004
      ],
      "type": "VEC2"
    },
    {
      "bufferView": 1,
      "byteOffset": 8912352,
      "componentType": 5126,
      "count": 65532,
      "max": [
        0.9997515678405762,
        0.9917933940887451
      ],
      "min": [
        0.000244140625,
        0.00024547113571316004
      ],
      "type": "VEC2"
    },
    {
      "bufferView": 0,
      "byteOffset": 8953224,
      "componentType": 5125,
      "count": 244512,
      "type": "SCALAR"
    },
    {
      "bufferView": 2,
      "byteOffset": 14154912,
      "componentType": 5126,
      "count": 65532,
      "max": [
        0.2955946624279022,
        0.3759072422981262,
        2.3800556659698486
      ],
      "min": [
        -0.3067720830440521,
        -0.29779285192489624,
        0.6937381029129028
      ],
      "type": "VEC3"
    },
    {
      "bufferView": 2,
      "byteOffset": 14941296,
      "componentType": 5126,
      "count": 65532,
      "max": [
        0.9999611377716064,
        0.9999937415122986,
        0.9999718070030212
      ],
      "min": [
        -0.9999998211860657,
        -0.9999998211860657,
        -0.996029257774353
      ],
      "type": "VEC3"
    },
    {
      "bufferView": 1,
      "byteOffset": 9436608,
      "componentType": 5126,
      "count": 65532,
      "max": [
        0.9997308254241943,
        0.9157475233078003
      ],
      "min": [
        0.000244140625,
        0.0002469612518325448
      ],
      "type": "VEC2"
    },
    {
      "bufferView": 1,
      "byteOffset": 9960864,
      "componentType": 5126,
      "count": 65532,
      "max": [
        0.9997308254241943,
        0.9157475233078003
      ],
      "min": [
        0.000244140625,
        0.0002469612518325448
      ],
      "type": "VEC2"
    },
    {
      "bufferView": 0,
      "byteOffset": 9931272,
      "componentType": 5125,
      "count": 254199,
      "type": "SCALAR"
    },
    {
      "bufferView": 2,
      "byteOffset": 15727680,
      "componentType": 5126,
      "count": 65532,
      "max": [
        0.3049556612968445,
        0.30804410576820374,
        1.5172274112701416
      ],
      "min": [
        -0.0007172271143645048,
        -0.20606045424938202,
        0.6960650682449341
      ],
      "type": "VEC3"
    },
    {
      "bufferView": 2,
      "byteOffset": 16514064,
      "componentType": 5126,
      "count": 65532,
      "max": [
        0.9999999403953552,
        0.9999977946281433,
        0.9999998807907104
      ],
      "min": [
        -0.9974806308746338,
        -0.9997664093971252,
        -0.9299514889717102
      ],
      "type": "VEC3"
    },
    {
      "bufferView": 1,
      "byteOffset": 10485120,
      "componentType": 5126,
      "count": 65532,
      "max": [
        0.999711811542511,
        0.9675291776657104
      ],
      "min": [
        0.000244140625,
        0.0002525640884414315
      ],
      "type": "VEC2"
    },
    {
      "bufferView": 1,
      "byteOffset": 11009376,
      "componentType": 5126,
      "count": 65532,
      "max": [
        0.999711811542511,
        0.9675291776657104
      ],
      "min": [
        0.000244140625,
        0.0002525640884414315
      ],
      "type": "VEC2"
    },
    {
      "bufferView": 0,
      "byteOffset": 10948068,
      "componentType": 5125,
      "count": 249516,
      "type": "SCALAR"
    },
    {
      "bufferView": 2,
      "byteOffset": 17300448,
      "componentType": 5126,
      "count": 4739,
      "max": [
        0.29866695404052734,
        0.056901708245277405,
        1.5211931467056274
      ],
      "min": [
        0.0812484622001648,
        -0.20750916004180908,
        1.0739061832427979
      ],
      "type": "VEC3"
    },
    {
      "bufferView": 2,
      "byteOffset": 17357316,
      "componentType": 5126,
      "count": 4739,
      "max": [
        0.9999990463256836,
        0.7097353339195251,
        0.9999884366989136
      ],
      "min": [
        -0.42317160964012146,
        -0.9992837309837341,
        -0.3946458101272583
      ],
      "type": "VEC3"
    },
    {
      "bufferView": 1,
      "byteOffset": 11533632,
      "componentType": 5126,
      "count": 4739,
      "max": [
        0.9991897940635681,
        0.9071479439735413
      ],
      "min": [
        0.0015667574480175972,
        0.005135912913829088
      ],
      "type": "VEC2"
    },
    {
      "bufferView": 1,
      "byteOffset": 11571544,
      "componentType": 5126,
      "count": 4739,
      "max": [
        0.9991897940635681,
        0.9071479439735413
      ],
      "min": [
        0.0015667574480175972,
        0.005135912913829088
      ],
      "type": "VEC2"
    },
    {
      "bufferView": 0,
      "byteOffset": 11946132,
      "componentType": 5125,
      "count": 13029,
      "type": "SCALAR"
    }
  ],
  "asset": {
    "extras": {
      "author": "Noovae Studio (https://sketchfab.com/Noovae_Studio)",
      "license": "CC-BY-4.0 (http://creativecommons.org/licenses/by/4.0/)",
      "source": "https://sketchfab.com/3d-models/massena-08c81dabc4f14214b7f03b9b1917ab2b",
      "title": "Massena"
    },
    "generator": "Sketchfab-15.99.0",
    "version": "2.0"
  },
  "bufferViews": [
    {
      "buffer": 0,
      "byteLength": 11998248,
      "name": "floatBufferViews",
      "target": 34963
    },
    {
      "buffer": 0,
      "byteLength": 11609456,
      "byteOffset": 11998248,
      "byteStride": 8,
      "name": "floatBufferViews",
      "target": 34962
    },
    {
      "buffer": 0,
      "byteLength": 17414184,
      "byteOffset": 23607704,
      "byteStride": 12,
      "name": "floatBufferViews",
      "target": 34962
    }
  ],
  "buffers": [
    {
      "byteLength": 41021888,
      "uri": "scene.bin"
    }
  ],
  "extensionsUsed": [
    "KHR_materials_unlit"
  ],
  "images": [
    {
      "uri": "textures/tex_u1_v1_baseColor.jpeg"
    }
  ],
  "materials": [
    {
      "doubleSided": true,
      "extensions": {
        "KHR_materials_unlit": {}
      },
      "name": "tex_u1_v1",
      "pbrMetallicRoughness": {
        "baseColorTexture": {
          "index": 0
        },
        "metallicFactor": 0.0
      }
    }
  ],
  "meshes": [
    {
      "name": "model_tex_u1_v1_0",
      "primitives": [
        {
          "attributes": {
            "NORMAL": 1,
            "POSITION": 0,
            "TEXCOORD_0": 2,
            "TEXCOORD_1": 3
          },
          "indices": 4,
          "material": 0,
          "mode": 4
        }
      ]
    },
    {
      "name": "model_tex_u1_v1_0",
      "primitives": [
        {
          "attributes": {
            "NORMAL": 6,
            "POSITION": 5,
            "TEXCOORD_0": 7,
            "TEXCOORD_1": 8
          },
          "indices": 9,
          "material": 0,
          "mode": 4
        }
      ]
    },
    {
      "name": "model_tex_u1_v1_0",
      "primitives": [
        {
          "attributes": {
            "NORMAL": 11,
            "POSITION": 10,
            "TEXCOORD_0": 12,
            "TEXCOORD_1": 13
          },
          "indices": 14,
          "material": 0,
          "mode": 4
        }
      ]
    },
    {
      "name": "model_tex_u1_v1_0",
      "primitives": [
        {
          "attributes": {
            "NORMAL": 16,
            "POSITION": 15,
            "TEXCOORD_0": 17,
            "TEXCOORD_1": 18
          },
          "indices": 19,
          "material": 0,
          "mode": 4
        }
      ]
    },
    {
      "name": "model_tex_u1_v1_0",
      "primitives": [
        {
          "attributes": {
            "NORMAL": 21,
            "POSITION": 20,
            "TEXCOORD_0": 22,
            "TEXCOORD_1": 23
          },
          "indices": 24,
          "material": 0,
          "mode": 4
        }
      ]
    },
    {
      "name": "model_tex_u1_v1_0",
      "primitives": [
        {
          "attributes": {
            "NORMAL": 26,
            "POSITION": 25,
            "TEXCOORD_0": 27,
            "TEXCOORD_1": 28
          },
          "indices": 29,
          "material": 0,
          "mode": 4
        }
      ]
    },
    {
      "name": "model_tex_u1_v1_0",
      "primitives": [
        {
          "attributes": {
            "NORMAL": 31,
            "POSITION": 30,
            "TEXCOORD_0": 32,
            "TEXCOORD_1": 33
          },
          "indices": 34,
          "material": 0,
          "mode": 4
        }
      ]
    },
    {
      "name": "model_tex_u1_v1_0",
      "primitives": [
        {
          "attributes": {
            "NORMAL": 36,
            "POSITION": 35,
            "TEXCOORD_0": 37,
            "TEXCOORD_1": 38
          },
          "indices": 39,
          "material": 0,
          "mode": 4
        }
      ]
    },
    {
      "name": "model_tex_u1_v1_0",
      "primitives": [
        {
          "attributes": {
            "NORMAL": 41,
            "POSITION": 40,
            "TEXCOORD_0": 42,
            "TEXCOORD_1": 43
          },
          "indices": 44,
          "material": 0,
          "mode": 4
        }
      ]
    },
    {
      "name": "model_tex_u1_v1_0",
      "primitives": [
        {
          "attributes": {
            "NORMAL": 46,
            "POSITION": 45,
            "TEXCOORD_0": 47,
            "TEXCOORD_1": 48
          },
          "indices": 49,
          "material": 0,
          "mode": 4
        }
      ]
    },
    {
      "name": "model_tex_u1_v1_0",
      "primitives": [
        {
          "attributes": {
            "NORMAL": 51,
            "POSITION": 50,
            "TEXCOORD_0": 52,
            "TEXCOORD_1": 53
          },
          "indices": 54,
          "material": 0,
          "mode": 4
        }
      ]
    },
    {
      "name": "model_tex_u1_v1_0",
      "primitives": [
        {
          "attributes": {
            "NORMAL": 56,
            "POSITION": 55,
            "TEXCOORD_0": 57,
            "TEXCOORD_1": 58
          },
          "indices": 59,
          "material": 0,
          "mode": 4
        }
      ]
    }
  ],
  "nodes": [
    {
      "children": [
        1
      ],
      "matrix": [
        -2.220446049250313e-16,
        6.123234262925839e-17,
        -1.0,
        0.0,
        -1.0,
        -2.465190328815662e-32,
        2.220446049250313e-16,
        0.0,
        0.0,
        1.0,
        6.123234262925839e-17,
        0.0,
        0.0,
        0.0,
        0.0,
        1.0
      ],
      "name": "Sketchfab_model"
    },
    {
      "children": [
        2
      ],
      "matrix": [
        1.0,
        0.0,
        0.0,
        0.0,
        0.0,
        0.0,
        1.0,
        0.0,
        0.0,
        -1.0,
        0.0,
        0.0,
        0.0,
        0.0,
        0.0,
        1.0
      ],
      "name": "model.fbx"
    },
    {
      "children": [
        3
      ],
      "name": "RootNode"
    },
    {
      "children": [
        4,
        5,
        6,
        7,
        8,
        9,
        10,
        11,
        12,
        13,
        14,
        15
      ],
      "matrix": [
        1.0,
        0.0,
        0.0,
        0.0,
        0.0,
        2.220446049250313e-16,
        -1.0,
        0.0,
        0.0,
        1.0,
        2.220446049250313e-16,
        0.0,
        0.0,
        0.0,
        0.0,
        1.0
      ],
      "name": "model"
    },
    {
      "mesh": 0,
      "name": "model_tex_u1_v1_0"
    },
    {
      "mesh": 1,
      "name": "model_tex_u1_v1_0"
    },
    {
      "mesh": 2,
      "name": "model_tex_u1_v1_0"
    },
    {
      "mesh": 3,
      "name": "model_tex_u1_v1_0"
    },
    {
      "mesh": 4,
      "name": "model_tex_u1_v1_0"
    },
    {
      "mesh": 5,
      "name": "model_tex_u1_v1_0"
    },
    {
      "mesh": 6,
      "name": "model_tex_u1_v1_0"
    },
    {
      "mesh": 7,
      "name": "model_tex_u1_v1_0"
    },
    {
      "mesh": 8,
      "name": "model_tex_u1_v1_0"
    },
    {
      "mesh": 9,
      "name": "model_tex_u1_v1_0"
    },
    {
      "mesh": 10,
      "name": "model_tex_u1_v1_0"
    },
    {
      "mesh": 11,
      "name": "model_tex_u1_v1_0"
    }
  ],
  "samplers": [
    {
      "magFilter": 9729,
      "minFilter": 9987,
      "wrapS": 10497,
      "wrapT": 10497
    }
  ],
  "scene": 0,
  "scenes": [
    {
      "name": "Sketchfab_Scene",
      "nodes": [
        0
      ]
    }
  ],
  "textures": [
    {
      "sampler": 0,
      "source": 0
    }
  ]
}
